<svg width="80" height="80" viewBox="0 0 80 80" fill="none" xmlns="http://www.w3.org/2000/svg">
<path d="M57.1755 50.3145H53.562L52.2813 49.0795C56.7639 43.8651 59.4626 37.0955 59.4626 29.7313C59.4626 13.3105 46.1521 0 29.7313 0C13.3105 0 0 13.3105 0 29.7313C0 46.1521 13.3105 59.4626 29.7313 59.4626C37.0955 59.4626 43.8651 56.7639 49.0795 52.2813L50.3145 53.562V57.1755L73.1847 80L80 73.1847L57.1755 50.3145V50.3145ZM29.7313 50.3145C18.3419 50.3145 9.14808 41.1206 9.14808 29.7313C9.14808 18.3419 18.3419 9.14808 29.7313 9.14808C41.1206 9.14808 50.3145 18.3419 50.3145 29.7313C50.3145 41.1206 41.1206 50.3145 29.7313 50.3145Z" fill="white"/>
</svg>
